<svg width="28" height="28" viewBox="0 0 28 28" fill="none" xmlns="http://www.w3.org/2000/svg">
<path d="M11.6666 5.83333C11.6666 5.21449 11.9125 4.621 12.35 4.18342C12.7876 3.74583 13.3811 3.5 14 3.5C14.6188 3.5 15.2123 3.74583 15.6499 4.18342C16.0875 4.621 16.3333 5.21449 16.3333 5.83333C17.6731 6.46687 18.8153 7.45305 19.6374 8.68618C20.4594 9.91932 20.9305 11.3529 21 12.8333V16.3333C21.0878 17.0587 21.3446 17.7532 21.7499 18.3611C22.1552 18.9691 22.6975 19.4733 23.3333 19.8333H4.66663C5.30239 19.4733 5.84474 18.9691 6.25001 18.3611C6.65529 17.7532 6.91216 17.0587 6.99996 16.3333V12.8333C7.06945 11.3529 7.54048 9.91932 8.36257 8.68618C9.18466 7.45305 10.3268 6.46687 11.6666 5.83333" stroke="#1A202C" stroke-width="1.5" stroke-linecap="round" stroke-linejoin="round"/>
<path d="M10.5 19.8335V21.0002C10.5 21.9284 10.8687 22.8187 11.5251 23.475C12.1815 24.1314 13.0717 24.5002 14 24.5002C14.9283 24.5002 15.8185 24.1314 16.4749 23.475C17.1313 22.8187 17.5 21.9284 17.5 21.0002V19.8335" stroke="#1A202C" stroke-width="1.5" stroke-linecap="round" stroke-linejoin="round"/>
</svg>
