<svg width="22" height="22" viewBox="0 0 22 22" fill="none" xmlns="http://www.w3.org/2000/svg">
<g id="Doughnut" clip-path="url(#clip0_1_4060)">
<path id="Vector" d="M11.2219 0.916992C5.66001 0.916992 1.13904 5.42434 1.13904 11C1.13904 16.5623 5.64633 21.083 11.2219 21.083C16.7841 21.083 21.3048 16.5757 21.3048 11C21.3048 5.42434 16.7841 0.916992 11.2219 0.916992ZM11.2219 14.3428C9.3725 14.3428 7.86552 12.8358 7.86552 10.9863C7.86552 9.13689 9.3725 7.62988 11.2219 7.62988C13.0713 7.62988 14.5783 9.13689 14.5783 10.9863C14.5783 12.8497 13.0716 14.3428 11.2219 14.3428Z" fill="#EDB66B"/>
<path id="Vector_2" d="M6.67098 14.2876C6.42182 14.2876 6.21204 14.1957 6.05451 14.0385C5.6872 13.658 5.70032 13.0024 5.72658 12.2287C5.73971 11.5597 5.76596 10.7203 5.45117 10.3926C5.38553 10.3139 5.25452 10.2222 4.95285 10.2091H4.90033C4.57241 10.2091 4.33638 10.2748 4.2051 10.4189C3.94281 10.6943 3.98219 11.3108 4.00845 11.8091C4.04783 12.3337 4.07409 12.7929 3.77242 13.0552C3.54952 13.265 3.24784 13.37 2.91992 13.37C2.27719 13.37 1.51658 12.9242 1.26743 12.3996C1.24144 12.3468 1.22832 12.3074 1.22832 12.2549L1.21519 12.1237C1.1758 11.6253 1.12329 11.0745 1.12329 10.8385C1.12329 5.27757 5.64781 0.766113 11.1952 0.766113C16.7426 0.766113 21.2674 5.29069 21.2674 10.8385C21.2674 11.0614 21.2543 11.2974 21.2412 11.5206C21.1887 12.2155 20.6247 12.7533 19.9429 12.7533C19.7987 12.7533 19.6412 12.727 19.4971 12.6745C18.8412 12.4253 18.2904 11.9533 17.7658 11.494C17.0052 10.8251 16.2837 10.2088 15.2608 10.1826C14.6181 10.1695 14.041 9.81528 13.7396 9.26444C13.0053 7.90047 12.9134 7.84796 11.0642 7.84796C7.65449 7.84796 7.65449 9.76276 7.65449 10.3924C7.65449 10.7466 7.68074 11.1267 7.69387 11.494C7.75951 12.5695 7.81202 13.5136 7.35282 13.9991C7.20868 14.1829 6.95952 14.2876 6.67098 14.2876Z" fill="#86522C"/>
<path id="Vector_3" d="M11.2216 1.19889C16.5461 1.19889 20.874 5.51369 20.874 10.8514C20.874 11.0743 20.8608 11.2972 20.8477 11.5073C20.8083 11.9793 20.415 12.3335 19.9823 12.3335C19.8904 12.3335 19.7857 12.3204 19.6938 12.281C18.2248 11.7302 17.2676 9.80224 15.3137 9.76313C14.8416 9.75 14.3824 9.48771 14.1595 9.06788C13.3333 7.5204 13.0579 7.4285 11.1037 7.4285C8.92662 7.4285 7.261 8.16286 7.261 10.3925C7.261 11.9925 7.6677 13.8548 6.68392 13.8548C5.38561 13.8548 7.18223 9.84163 4.97918 9.78911H4.91354C2.77586 9.78911 3.95629 12.3335 3.51049 12.7531C3.35295 12.8975 3.1563 12.9497 2.94653 12.9497C2.42195 12.9497 1.84487 12.5824 1.68733 12.2285C1.66107 11.9531 1.59543 11.1268 1.59543 10.8514C1.56918 5.51369 5.89705 1.19889 11.2216 1.19889ZM11.2216 0.333252C5.42499 0.333252 0.716675 5.04163 0.716675 10.8383C0.716675 11.0874 0.769187 11.6514 0.808571 12.1629L0.821699 12.2939C0.834827 12.3989 0.861083 12.5036 0.900467 12.5955C1.22839 13.2774 2.12028 13.8022 2.9334 13.8022C3.36608 13.8022 3.75964 13.6578 4.07444 13.3824C4.53338 12.976 4.49399 12.3726 4.45461 11.7824C4.44148 11.4807 4.38897 10.8643 4.53338 10.7201C4.55963 10.6939 4.67751 10.6414 4.91354 10.6414H4.95293C4.99231 10.6414 5.11019 10.6414 5.14958 10.6807C5.34622 10.8774 5.31997 11.743 5.30684 12.2151C5.28058 13.0414 5.26745 13.8282 5.75265 14.3265C5.98868 14.5757 6.3166 14.707 6.68392 14.707C7.09061 14.707 7.44452 14.5626 7.70681 14.2743C8.2839 13.6578 8.23138 12.6349 8.16574 11.4545C8.13949 11.1003 8.12636 10.7201 8.12636 10.3791C8.12636 9.74945 8.12636 8.26761 11.1034 8.26761C12.769 8.26761 12.769 8.26761 13.3984 9.46118C13.7657 10.1562 14.5 10.5891 15.2869 10.6022C16.1525 10.6154 16.7821 11.1659 17.5165 11.8087C18.0804 12.2939 18.6575 12.8056 19.3787 13.0679C19.5622 13.1335 19.7723 13.1729 19.9689 13.1729C20.874 13.1729 21.6346 12.4645 21.6868 11.5467C21.6999 11.3106 21.7131 11.0615 21.7131 10.8254C21.7267 5.05475 17.0184 0.333252 11.2216 0.333252Z" fill="#4C2F1B"/>
<path id="Vector_4" d="M12.6691 20.2904C12.7421 20.4813 13.0419 20.5439 13.3386 20.4301C13.6354 20.3166 13.8167 20.0699 13.7437 19.879C13.6707 19.6881 13.3709 19.6258 13.0742 19.7393C12.7774 19.853 12.5961 20.0997 12.6691 20.2904Z" fill="#E3A358"/>
<path id="Vector_5" d="M18.1973 16.7584C18.325 17.092 18.6357 17.3267 19.0123 17.374C19.3889 17.4211 19.774 17.2736 20.0229 16.9873C20.2718 16.7007 20.3465 16.3186 20.2187 15.9849C20.091 15.6509 19.7803 15.4165 19.4037 15.3692C19.0271 15.3222 18.6417 15.4696 18.3929 15.756C18.144 16.0426 18.0696 16.4247 18.1973 16.7584Z" fill="#E3A358"/>
<path id="Vector_6" d="M8.65109 20.921C8.77882 21.2546 9.08951 21.4893 9.46612 21.5366C9.84273 21.5837 10.2281 21.4362 10.477 21.1499C10.7259 20.8632 10.8005 20.4812 10.6728 20.1475C10.5451 19.8138 10.2344 19.5791 9.85777 19.5318C9.48116 19.4848 9.0958 19.6322 8.84692 19.9186C8.59803 20.2052 8.52337 20.5873 8.65109 20.921Z" fill="#E3A358"/>
<path id="Vector_7" d="M6.54979 19.3792C6.75026 19.4246 6.95101 19.398 7.07682 19.3092C7.20236 19.2203 7.23354 19.083 7.1586 18.9484C7.08366 18.8141 6.91409 18.7031 6.71361 18.6577C6.51314 18.612 6.31239 18.6388 6.18658 18.7277C6.06104 18.8166 6.02986 18.9539 6.1048 19.0882C6.17947 19.2227 6.34931 19.3335 6.54979 19.3792Z" fill="#E3A358"/>
<path id="Vector_8" d="M10.8414 15.3078C11.0085 15.3459 11.1715 15.3428 11.2692 15.2996C11.3668 15.2564 11.384 15.1801 11.3148 15.0991C11.2454 15.0182 11.0996 14.9449 10.9325 14.9069C10.7654 14.8689 10.6024 14.8719 10.5047 14.9151C10.4071 14.9583 10.3899 15.0346 10.4591 15.1156C10.5285 15.1968 10.6743 15.2698 10.8414 15.3078Z" fill="#E3A358"/>
<path id="Vector_9" d="M3.29475 16.2474C3.42384 16.2766 3.55321 16.2578 3.63471 16.1981C3.71622 16.1382 3.73673 16.0466 3.68941 15.9577C3.64182 15.8686 3.53324 15.7958 3.40443 15.7665C3.27533 15.7373 3.14597 15.7559 3.06474 15.8158C2.98323 15.8754 2.96245 15.9673 3.01004 16.0562C3.05708 16.1451 3.16593 16.2181 3.29475 16.2474Z" fill="#E3A358"/>
<path id="Vector_10" d="M8.49103 14.3422C8.66115 14.4577 8.84166 14.5299 8.96474 14.5315C9.08781 14.5332 9.13486 14.464 9.08781 14.3502C9.04104 14.2361 8.9073 14.095 8.73718 13.9796C8.56707 13.8642 8.38656 13.792 8.26321 13.7903C8.14013 13.7887 8.09336 13.8579 8.14013 13.9716C8.18717 14.0857 8.32092 14.2268 8.49103 14.3422Z" fill="#E3A358"/>
<path id="Vector_11" d="M11.2222 21.6666C5.34031 21.6666 0.55542 16.8816 0.55542 11.0002C0.55542 5.11821 5.34031 0.333252 11.2222 0.333252C17.1039 0.333252 21.8888 5.11821 21.8888 11.0002C21.8888 16.8816 17.1036 21.6666 11.2222 21.6666ZM11.2222 1.50057C5.99179 1.50057 1.73667 5.75602 1.73667 10.9862C1.73667 16.2165 5.99207 20.4719 11.2222 20.4719C16.4524 20.4719 20.7078 16.2167 20.7078 10.9862C20.7078 5.75575 16.4524 1.50057 11.2222 1.50057ZM11.2222 14.94C9.04953 14.94 7.28217 13.1726 7.28217 11.0002C7.28217 8.82009 9.04953 7.04641 11.2222 7.04641C13.3946 7.04641 15.162 8.8138 15.162 10.9865C15.162 13.1663 13.3946 14.94 11.2222 14.94ZM11.2222 8.22713C9.70074 8.22713 8.46315 9.46501 8.46315 10.9862C8.46315 12.5075 9.70101 13.7453 11.2222 13.7453C12.7434 13.7453 13.9813 12.5075 13.9813 10.9862C13.981 9.46501 12.7434 8.22713 11.2222 8.22713Z" fill="#4C2F1B"/>
<path id="Vector_12" d="M11.7974 5.49268L9.49589 3.972C9.39989 3.91702 9.38621 3.79394 9.44091 3.69794L9.70129 3.31449C9.75599 3.21849 9.87934 3.20482 9.97533 3.25952L12.2768 4.7802C12.3728 4.83518 12.3865 4.95853 12.3315 5.05425L12.0712 5.43798C12.0167 5.53371 11.8934 5.54738 11.7974 5.49268Z" fill="#DB79AD"/>
<path id="Vector_13" d="M2.65979 7.90379L3.26258 6.58878C3.30361 6.49278 3.42696 6.45175 3.52295 6.49278L3.9477 6.68451C4.0437 6.72553 4.08472 6.84888 4.0437 6.94488L3.4409 8.25989C3.39961 8.35589 3.27653 8.39691 3.18053 8.35589L2.75578 8.16416C2.65979 8.10919 2.60509 7.99979 2.65979 7.90379ZM17.6197 7.79411L16.4688 6.90358C16.3868 6.83521 16.3728 6.71186 16.4278 6.62953L16.7155 6.25976C16.7839 6.1777 16.9073 6.16376 16.9896 6.21873L18.1405 7.10926C18.2225 7.17791 18.2365 7.30098 18.1815 7.38331L17.8938 7.75336C17.8254 7.84909 17.7021 7.86249 17.6197 7.79411Z" fill="#F6B173"/>
<path id="Vector_14" d="M14.729 5.93113L13.9345 4.1364C13.8935 4.0404 13.9345 3.91705 14.0305 3.87602L14.455 3.68429C14.551 3.64327 14.6743 3.68429 14.7153 3.78029L15.5099 5.57503C15.5509 5.67103 15.5099 5.79411 15.4139 5.8354L14.9891 6.02713C14.8937 6.06816 14.784 6.02686 14.729 5.93113ZM5.90643 9.2739L5.11191 7.47917C5.07088 7.38317 5.11191 7.26009 5.2079 7.21879L5.63265 7.02706C5.72865 6.98604 5.85173 7.02706 5.89302 7.12306L6.68754 8.9178C6.72857 9.0138 6.68754 9.13715 6.59154 9.17817L6.1668 9.3699C6.0574 9.4246 5.94772 9.3699 5.90643 9.2739Z" fill="#F7E774"/>
<path id="Vector_15" d="M6.27658 5.56111L7.09872 3.78005C7.13975 3.68405 7.2631 3.64302 7.35909 3.68405L7.78384 3.87578C7.87984 3.9168 7.92086 4.04015 7.87984 4.13615L7.0577 5.91721C7.01667 6.01321 6.89332 6.05424 6.79732 6.01321L6.37258 5.82149C6.27658 5.78046 6.23555 5.67078 6.27658 5.56111ZM18.6473 10.0274L18.9213 8.082C18.935 7.97232 19.031 7.90395 19.1407 7.91762L19.6065 7.986C19.7161 7.99967 19.7845 8.09567 19.7708 8.20507L19.4968 10.1505C19.4831 10.2599 19.3871 10.3286 19.2777 10.3149L18.8119 10.2465C18.702 10.2328 18.6336 10.1371 18.6473 10.0274Z" fill="#EC6A69"/>
<path id="Vector_16" d="M5.25741 16.7317C5.35313 16.7809 5.45952 16.7913 5.53665 16.7593C5.6135 16.7273 5.64933 16.6576 5.63046 16.5764C5.61159 16.4951 5.54075 16.415 5.44503 16.3658C5.3493 16.3165 5.24291 16.3061 5.16578 16.3381C5.08893 16.3701 5.0531 16.4399 5.07197 16.5211C5.09084 16.6021 5.16141 16.6825 5.25741 16.7317Z" fill="#E3A358"/>
<path id="Vector_17" d="M15.3311 17.2129C15.3554 17.2769 15.4563 17.3062 15.595 17.2895C15.7339 17.2731 15.8901 17.2132 16.0044 17.1328C16.1188 17.0524 16.1743 16.9632 16.1499 16.8992C16.1253 16.8352 16.0247 16.8059 15.8857 16.8224C15.7468 16.8388 15.5906 16.8984 15.4763 16.9791C15.362 17.0598 15.3065 17.1489 15.3311 17.2129Z" fill="#E3A358"/>
<path id="Vector_18" d="M9.18101 16.4942C9.31092 16.5902 9.46518 16.6326 9.58552 16.6055C9.70586 16.5784 9.77423 16.486 9.76439 16.3629C9.75482 16.2401 9.66894 16.105 9.53902 16.009C9.40911 15.913 9.25486 15.8706 9.13452 15.8977C9.01418 15.9248 8.9458 16.0172 8.95565 16.1403C8.96495 16.2636 9.0511 16.3985 9.18101 16.4942Z" fill="#E3A358"/>
<path id="Vector_19" d="M13.0197 18.3326C13.0353 18.4451 13.1877 18.5167 13.36 18.4929C13.5325 18.4691 13.6594 18.3586 13.6439 18.2462C13.6283 18.1338 13.4759 18.0619 13.3036 18.0859C13.131 18.1097 13.0041 18.2202 13.0197 18.3326Z" fill="#E3A358"/>
</g>
<defs>
<clipPath id="clip0_1_4060">
<rect width="21.3333" height="21.3333" fill="white" transform="translate(0.55542 0.333252)"/>
</clipPath>
</defs>
</svg>
