<svg width="18" height="32" viewBox="0 0 18 32" fill="none" xmlns="http://www.w3.org/2000/svg">
<g id="Icecream" clip-path="url(#clip0_1_4038)">
<path id="Vector" d="M4.19024 12.3911C4.19024 12.3911 2.18327 8.75592 6.75035 6.55687C11.3178 4.35782 10.4181 2.10567 10.3836 0.722656C10.3836 0.722656 14.2241 2.07038 14.2241 6.09575C14.2241 10.7593 4.19024 12.3911 4.19024 12.3911Z" fill="white"/>
<path id="Vector_2" d="M11.3868 2.24766C11.3868 2.24766 12.3901 5.93626 10.4353 7.30146C8.48044 8.667 5.66031 9.07467 4.62256 10.6886C4.62256 10.6886 6.09312 11.4512 8.42863 10.8482C10.7641 10.2453 14.224 6.66322 14.224 6.66322C14.224 6.66322 15.7119 0.95303 11.3868 2.24766Z" fill="#5A85FF"/>
<path id="Vector_3" d="M11.421 2.35403C11.421 2.35403 13.2549 4.71273 12.8224 6.29067C12.3899 7.86895 10.4351 8.89739 10.141 8.96831C9.84685 9.03922 5.62568 9.96146 4.6394 10.6884C4.6394 10.6884 9.27567 10.6528 10.5734 9.92583C11.8883 9.19887 14.7081 7.28348 14.068 5.75864C13.428 4.23379 12.8398 1.59144 11.421 2.35403Z" fill="#507BE1"/>
<path id="Vector_4" d="M4.35169 13.1443C4.28318 13.1299 4.23772 13.1299 4.18993 13.1299C3.93024 13.1299 3.69161 12.9891 3.56728 12.7623C3.41555 12.4639 2.69832 10.9175 3.23574 9.20181C3.67156 7.82668 4.75777 6.71191 6.46328 5.88937C10.0006 4.20454 9.8576 2.69511 9.73126 1.36349C9.71388 1.13327 9.6965 0.937311 9.67913 0.741352C9.67979 0.516274 9.78942 0.285715 9.97324 0.140802C10.0959 0.0513876 10.2486 0 10.3987 0C10.4792 0 10.5578 0.0143885 10.632 0.042823C11.3726 0.331622 14.9621 1.94417 14.9621 6.13089C14.9621 11.2882 5.12307 13.0168 4.35169 13.1443ZM11.2082 2.31073C11.1494 3.7095 10.6266 5.53171 7.07289 7.22407C5.74237 7.86916 4.91351 8.68143 4.60837 9.63895C4.40216 10.3111 4.48304 10.9617 4.58732 11.3896L4.62876 11.5595L4.7962 11.5249C5.68756 11.3399 13.5032 9.61634 13.5032 6.09629C13.5032 4.09731 12.4097 2.85852 11.4923 2.17096L11.2225 1.96883L11.2082 2.31073Z" fill="#4C2F1B"/>
<path id="Vector_5" d="M2.40823 17.4626C2.40823 17.4626 0.141896 13.5256 4.98605 11.5753C9.5879 9.71331 10.6604 11.5396 13.9648 7.30151C14.4321 8.17031 16.1098 10.5821 13.7746 13.6143C12.7536 14.9446 4.81293 17.5335 2.40823 17.4626Z" fill="white"/>
<path id="Vector_6" d="M13.7915 8.47192C13.7915 8.47192 14.5184 12.0896 8.15192 12.6038C3.89599 12.9409 2.33887 16.3103 2.33887 16.3103L12.1478 14.5545L14.985 11.6994L13.7915 8.47192Z" fill="#FF5C68"/>
<path id="Vector_7" d="M6.78484 30.3722C6.35236 30.3722 5.97169 30.0529 5.9025 29.6096L4.93361 23.7044C4.8818 23.4386 4.96837 23.1549 5.14149 22.9597C5.31428 22.7469 5.55659 22.6404 5.83332 22.6404H11.7674C12.0267 22.6404 12.2864 22.7644 12.4592 22.9597C12.6323 23.1728 12.7015 23.4386 12.6671 23.7044L11.6982 29.6096C11.629 30.0529 11.2483 30.3722 10.8158 30.3722H6.78484Z" fill="#FFCD8A"/>
<path id="Vector_8" d="M6.78491 31.1112C5.99349 31.1112 5.30333 30.5141 5.17967 29.7227L4.21043 23.8159C4.13156 23.3143 4.26157 22.8193 4.56704 22.4592C4.88689 22.0824 5.3421 21.8662 5.81602 21.8662H11.7501C12.2243 21.8662 12.6795 22.0824 12.999 22.4592C13.3038 22.8344 13.4348 23.3297 13.3556 23.8162L12.3867 29.721C12.2454 30.5254 11.5699 31.1108 10.7812 31.1108H6.78491V31.1112ZM6.63351 29.6155H10.9322L11.9613 23.3441H5.60446L6.63351 29.6155Z" fill="#4C2F1B"/>
<path id="Vector_9" d="M13.5 25.1797L8.84631 25.4404H8.73736L4.08371 25.1793C3.62917 25.1608 3.22911 24.8066 3.15659 24.3407L2.37519 20.1485C2.26623 19.515 2.73881 18.9189 3.35678 18.9189H14.2272C14.8636 18.9189 15.3362 19.515 15.2088 20.1485L14.4274 24.341C14.3362 24.8069 13.9545 25.1423 13.5 25.1797Z" fill="#FFCD8A"/>
<path id="Vector_10" d="M1.54309 21.3834L1.96387 20.7763L9.39554 26.1902L8.97476 26.7972L1.54309 21.3834ZM3.98255 20.8486L4.40333 20.2415L11.8347 25.6554L11.4139 26.2624L3.98255 20.8486ZM6.77159 20.3947L7.19271 19.7876L14.624 25.2015L14.2033 25.8085L6.77159 20.3947ZM8.70772 19.2052L9.1285 18.5981L15.5729 23.2929L15.1518 23.9L8.70772 19.2052Z" fill="#FFBB71"/>
<path id="Vector_11" d="M7.72922 26.2004L15.1616 20.7875L15.5823 21.3949L8.15 26.8078L7.72922 26.2004ZM5.29846 25.6478L14.4935 18.9509L14.9142 19.5583L5.71924 26.2548L5.29846 25.6478ZM2.48267 25.2058L9.91467 19.793L10.3355 20.4001L2.90345 25.8129L2.48267 25.2058ZM1.54419 23.3018L7.98925 18.6077L8.41003 19.2151L1.96497 23.9092L1.54419 23.3018Z" fill="#FFBB71"/>
<path id="Vector_12" d="M8.61881 26.9263L4.19978 26.6786C3.01865 26.6289 2.03472 25.7488 1.80511 24.5388L1.06148 20.5494C0.917093 19.7936 1.11829 19.0016 1.61293 18.3764C2.11861 17.7577 2.82548 17.4158 3.60187 17.4158H13.965C14.7337 17.4158 15.4566 17.7731 15.8981 18.3716C16.4011 18.9704 16.6006 19.7611 16.4532 20.5494L15.7092 24.5395C15.483 25.7323 14.4984 26.6121 13.3146 26.6786L8.89053 26.9263H8.61881ZM3.61891 18.8933C3.29071 18.8933 2.97922 19.0441 2.76365 19.3075C2.54206 19.5785 2.44915 19.9324 2.50864 20.2787L3.25328 24.2709C3.33382 24.7872 3.78602 25.1965 4.30406 25.2178L8.7301 25.4658L8.84374 25.4662L13.2825 25.2174C13.8009 25.175 14.23 24.7865 14.3303 24.2723L15.0742 20.2811C15.1424 19.9423 15.0582 19.5912 14.8429 19.3205C14.627 19.0492 14.3069 18.8933 13.9646 18.8933H3.61891Z" fill="#4C2F1B"/>
<path id="Vector_13" d="M13.8086 8.96851C13.8086 8.96851 14.2066 11.5752 12.5459 12.7811C10.5045 14.59 4.65704 14.3772 3.20386 15.5297C3.20386 15.5297 12.3728 15.725 13.4453 13.0292C14.5178 10.3337 14.8637 9.09252 13.8086 8.96851Z" fill="#F93D53"/>
<path id="Vector_14" d="M2.39079 18.2192C2.14882 18.2192 1.92656 18.0825 1.78118 17.8441C1.76413 17.8181 0.713018 15.9685 1.36608 14.0106C1.81393 12.6502 2.93724 11.6019 4.70458 10.8944C6.46792 10.1925 7.76936 10.0174 8.81479 9.87662C10.6025 9.64093 11.5858 9.51109 13.5156 7.04311C13.6496 6.86839 13.8461 6.76904 14.0557 6.76904C14.0817 6.76904 14.1078 6.77041 14.1335 6.77384C14.3825 6.78926 14.5971 6.93417 14.704 7.15274C14.7298 7.19487 14.7448 7.22228 14.7599 7.24935C14.7796 7.28463 14.7996 7.31958 14.819 7.35007C15.3651 8.30074 16.8297 10.8485 14.3431 14.0866C13.0777 15.7293 4.99502 18.2196 2.47735 18.2196H2.39079V18.2192ZM13.7662 9.00132C11.9397 10.9609 10.5825 11.1366 9.01165 11.3401C7.8997 11.4755 6.77272 11.6488 5.23131 12.2737C3.87873 12.8098 3.03449 13.5573 2.72334 14.4953C2.51245 15.1003 2.53517 15.8088 2.79219 16.5985L2.83697 16.7365L2.97835 16.7232C5.75804 16.4594 12.437 14.1411 13.1877 13.1795C14.6242 11.2946 14.3755 9.92835 14.0633 9.06436L13.9641 8.7896L13.7662 9.00132Z" fill="#4C2F1B"/>
<path id="Vector_15" d="M14.6742 12.2312C14.6742 12.2312 13.6361 14.6074 9.57068 15.4409C6.30103 16.0969 1.40507 15.6714 1.3877 18.8989C1.3877 21.9668 13.8437 21.4347 15.3834 18.6684C17.6153 14.643 14.6742 12.2312 14.6742 12.2312Z" fill="white"/>
<path id="Vector_16" d="M2.23535 18.9169C4.19019 17.0728 9.3455 18.2077 11.162 17.5335C13.6185 16.6113 14.6739 16.3098 14.8815 13.5435C14.8815 13.5435 18.0302 17.2852 13.9992 19.8032C11.6636 21.2221 3.63639 22.2328 2.23535 18.9169Z" fill="#FFF383"/>
<path id="Vector_17" d="M14.9159 13.5259C14.9159 13.5259 18.4626 20.9915 3.20386 19.6263C3.22124 19.6259 20.1407 22.7291 14.9159 13.5259Z" fill="#F6E259"/>
<path id="Vector_18" d="M6.81967 21.642C5.06803 21.642 3.61184 21.4433 2.60785 21.0678C1.33649 20.6204 0.666382 19.8709 0.666382 18.8993C0.666382 15.7777 4.14058 15.3731 6.93196 15.0476L7.01251 15.038C7.98475 14.9387 8.7715 14.8277 9.41387 14.6989C12.8403 14 14.1912 12.1048 14.3075 11.8027L14.2924 11.8612C14.4017 11.6656 14.5802 11.5334 14.7951 11.4892C14.8339 11.481 14.8736 11.4775 14.9131 11.4775C15.0779 11.4775 15.2513 11.545 15.3893 11.6632C16.6871 12.8061 18.4705 15.8383 15.9177 19.122C14.6808 20.7595 10.3076 21.642 6.81967 21.642ZM14.8402 13.5396C13.9749 14.4447 12.3827 15.6348 9.70931 16.1658C8.90151 16.3275 7.9784 16.4347 7.18196 16.518C4.12687 16.8657 2.12524 17.2193 2.12524 18.8989C2.12524 19.2487 2.74187 19.5238 3.10951 19.6571C4.00221 19.9784 5.25787 20.1483 6.74113 20.1483C9.8537 20.1483 13.9415 19.347 14.8309 18.197C16.3984 16.1555 15.6818 14.4183 15.1153 13.5646L14.9926 13.3796L14.8402 13.5396Z" fill="#4C2F1B"/>
</g>
<defs>
<clipPath id="clip0_1_4038">
<rect width="16.5485" height="31.1111" fill="white" transform="translate(0.666382)"/>
</clipPath>
</defs>
</svg>
