<svg width="46" height="43" viewBox="0 0 46 43" fill="none" xmlns="http://www.w3.org/2000/svg">
<rect x="3.67413" y="4.97827" width="42.2674" height="37.3367" rx="6.96951" fill="#6C5FBC"/>
<rect x="1.0075" y="1.0075" width="40.2524" height="35.3217" rx="5.96201" fill="#DBD9EE" stroke="#6C5FBC" stroke-width="2.01499"/>
<path d="M32.6238 12.0507L9.72219 11.9494" stroke="#6C5FBC" stroke-width="2.08432" stroke-linecap="round" stroke-linejoin="round"/>
<path d="M32.6092 16.636L27.5158 16.6135C25.409 16.6042 23.7051 14.5421 23.7129 12.0112C23.7207 9.48022 25.4371 7.43325 27.5439 7.44257L32.6373 7.46509" stroke="#6C5FBC" stroke-width="2.08432" stroke-linecap="round" stroke-linejoin="round"/>
<path d="M17.3613 26.7222L10.7069 26.6481C10.1616 26.6457 9.70476 26.1077 9.69438 25.4527L9.6501 23.7255C9.63981 23.0407 10.1001 22.4621 10.6701 22.4646L17.2501 22.5384L17.3613 26.7222Z" stroke="#6C5FBC" stroke-width="2.08432" stroke-linecap="round" stroke-linejoin="round"/>
<path d="M27.8134 29.2102L18.4076 29.0942C17.8623 29.0918 17.4054 28.5538 17.395 27.8987L17.2752 22.5236L32.5549 22.7102L32.5652 23.3951C32.642 26.6411 30.5025 29.2519 27.8134 29.2102Z" stroke="#6C5FBC" stroke-width="2.08432" stroke-linecap="round" stroke-linejoin="round"/>
</svg>
