<svg width="31" height="31" viewBox="0 0 31 31" fill="none" xmlns="http://www.w3.org/2000/svg">
<g id="Hotdog" clip-path="url(#clip0_1_4083)">
<path id="Vector" d="M16.3705 16.538C12.6276 20.0423 8.14478 20.7987 7.64676 20.874C6.87992 20.9877 6.11345 20.8005 5.49021 20.3389C4.86676 19.8771 4.45723 19.2015 4.34421 18.4348C4.2019 17.4907 4.53451 16.534 5.23266 15.8803C5.66167 15.4787 6.1942 15.2212 6.7772 15.1298C6.89977 15.1103 9.91588 14.6046 12.3569 12.3193C13.7944 10.9734 14.7458 9.27355 15.184 7.2681C15.3112 6.68983 15.6033 6.17086 16.0348 5.76682C16.733 5.11318 17.7073 4.84188 18.6401 5.04599C19.3979 5.209 20.0449 5.66229 20.4646 6.31476C20.8844 6.96723 21.023 7.74669 20.8567 8.50225C20.1604 11.6991 18.6518 14.4021 16.3705 16.538Z" fill="#F4A360"/>
<path id="Vector_2" d="M16.8351 17.0343C13.0873 20.5431 8.60841 21.4119 7.74848 21.5506C6.8032 21.6919 5.85689 21.4566 5.08606 20.8877C4.31383 20.3177 3.81075 19.4829 3.67036 18.5366C3.49446 17.3708 3.90471 16.1923 4.76804 15.384C5.29611 14.8896 5.95086 14.5676 6.66151 14.4527C6.68488 14.4499 9.57614 13.9827 11.8879 11.8183C13.2208 10.5704 14.1044 8.989 14.5138 7.11813C14.6697 6.40465 15.0335 5.76425 15.5661 5.26566C16.4294 4.45737 17.6323 4.12554 18.7836 4.37773C19.7206 4.58342 20.5211 5.14013 21.0367 5.94523C21.5536 6.75181 21.7261 7.71155 21.5223 8.64732C20.7953 11.9814 19.2183 14.8031 16.8351 17.0343ZM5.69731 16.3766C5.16541 16.8746 4.90974 17.6054 5.01319 18.3316C5.19371 19.5441 6.32751 20.3818 7.54085 20.2001C7.72981 20.1722 12.2254 19.4832 15.9013 16.0416C18.0759 14.0056 19.5183 11.4207 20.1883 8.35892C20.316 7.77984 20.21 7.18513 19.8897 6.68541C19.5691 6.18526 19.0723 5.84003 18.4912 5.71366C17.777 5.55845 17.0316 5.76448 16.4967 6.26526C16.1657 6.57517 15.9402 6.97211 15.8445 7.41322C15.3761 9.55772 14.3581 11.3761 12.8188 12.8173C10.2981 15.1773 7.21826 15.7466 6.8753 15.8038C6.43461 15.8704 6.0264 16.0685 5.69731 16.3766Z" fill="#4C2F1B"/>
<path id="Vector_3" d="M18.5871 18.5218C15.2926 21.6062 11.0389 23.1072 8.15407 23.4855C7.38517 23.5872 6.62404 23.3819 6.00797 22.9088C5.39212 22.4355 4.99928 21.7534 4.90042 20.9822C4.78093 20.0578 5.11509 19.1223 5.79645 18.4844C6.24013 18.069 6.79387 17.8053 7.39767 17.7263C7.44489 17.7183 8.64574 17.553 10.2059 16.9696C11.9515 16.317 13.4398 15.4238 14.6276 14.3118C16.3487 12.7004 17.3844 10.6577 17.7023 8.24242C17.7901 7.57823 18.1068 6.95895 18.5963 6.50056C19.2339 5.90365 20.0981 5.6263 20.9632 5.73905C21.7301 5.83892 22.4168 6.23233 22.8895 6.84883C23.3621 7.46533 23.5646 8.22565 23.466 8.99515C22.9672 12.7533 21.3263 15.9572 18.5871 18.5218Z" fill="#FF6C4A"/>
<path id="Vector_4" d="M19.0564 19.0229C15.6475 22.2145 11.2361 23.7707 8.24433 24.163C7.29325 24.2866 6.35166 24.0334 5.59286 23.4496C4.83627 22.8677 4.35063 22.0226 4.22506 21.0704C4.07531 19.9295 4.48921 18.7771 5.33192 17.9882C5.88062 17.4744 6.56303 17.1504 7.3053 17.051C7.31523 17.0496 8.46512 16.893 9.96849 16.3328C11.6313 15.7112 13.0425 14.8642 14.1628 13.8153C15.7641 12.3161 16.727 10.4118 17.0248 8.15483C17.1304 7.33449 17.5225 6.57 18.1294 6.00175C18.919 5.26252 19.9844 4.92231 21.0521 5.06861C21.9993 5.19102 22.8431 5.67767 23.4296 6.43874C24.0143 7.19747 24.2666 8.139 24.1408 9.08946C23.6239 13.006 21.9134 16.3481 19.0564 19.0229ZM6.26319 18.9828C5.7417 19.4711 5.48473 20.1852 5.57541 20.8931C5.73336 22.1091 6.85077 22.969 8.06601 22.8106C10.8455 22.4467 14.9469 20.9987 18.1226 18.0255C20.7442 15.571 22.3134 12.5027 22.7862 8.90563C22.8637 8.31771 22.7079 7.73457 22.3469 7.26421C21.9856 6.79301 21.4622 6.49099 20.8727 6.41397C20.2079 6.32853 19.5475 6.54104 19.0607 6.99683C18.6855 7.34814 18.4425 7.82236 18.3766 8.3324C18.0388 10.9079 16.9343 13.0871 15.0939 14.8102C13.8407 15.9835 12.2766 16.9249 10.4447 17.6085C8.77261 18.2317 7.50289 18.3997 7.49028 18.4012C7.02835 18.4626 6.60397 18.6638 6.26319 18.9828Z" fill="#4C2F1B"/>
<path id="Vector_5" d="M11.836 19.7702C11.3077 20.2648 10.6399 19.9354 10.1961 19.7192C9.73168 19.4904 9.48816 19.4003 9.37421 19.507C9.09784 19.7657 8.66623 19.7517 8.40771 19.4756C8.14919 19.1994 8.1636 18.7678 8.43997 18.5091C9.24717 17.7533 10.2161 18.2054 10.7616 18.4718C10.6961 17.9744 10.6321 17.2112 11.2261 16.6551C11.8248 16.0946 12.6013 16.1902 13.1161 16.2492C13.2096 16.2617 13.3334 16.2772 13.4296 16.2828C13.4439 16.1332 13.4376 15.9027 13.4333 15.7524C13.4183 15.2165 13.4034 14.6079 13.8156 14.2219C14.2446 13.8203 14.9097 13.8792 15.4973 13.9337C15.5675 13.9405 15.647 13.9478 15.7292 13.9529C15.7273 13.9364 15.7254 13.9246 15.7211 13.9103C15.6418 13.3982 15.5248 12.6217 16.0773 12.1044C16.5112 11.6981 17.1385 11.7605 17.6907 11.8211C17.7448 11.8251 17.8102 11.832 17.8757 11.8388C17.8711 11.834 17.8715 11.8292 17.8691 11.8267C17.6037 11.2616 17.1102 10.2146 17.9102 9.46564C18.1866 9.2069 18.6182 9.22091 18.8767 9.49704C19.1352 9.77316 19.1208 10.2048 18.8444 10.4635C18.8001 10.5959 19.0062 11.0347 19.1073 11.2445C19.3397 11.7356 19.6578 12.4108 19.127 12.9078C18.7027 13.305 18.0896 13.2429 17.5488 13.1852C17.3968 13.1685 17.1605 13.1446 17.0193 13.1492C17.0075 13.2922 17.048 13.554 17.071 13.7098C17.1424 14.17 17.2213 14.6915 16.8287 15.0591C16.4626 15.4019 15.9337 15.3518 15.3718 15.3008C15.2079 15.286 14.9642 15.2638 14.7999 15.2682C14.7906 15.404 14.7984 15.5921 14.801 15.7215C14.8174 16.2878 14.8312 16.9293 14.3898 17.3425C13.9681 17.7374 13.4042 17.6699 12.9482 17.6149C12.6253 17.5764 12.291 17.5351 12.1577 17.6599C12.051 17.7598 12.0774 18.0211 12.1241 18.382C12.1858 18.793 12.2627 19.3707 11.836 19.7702Z" fill="#F9AF38"/>
<path id="Vector_6" d="M20.4987 21.059C17.0152 24.3204 12.9805 25.5162 12.1686 25.6402C11.4013 25.7539 10.7027 25.6443 10.15 25.3211C9.51893 24.953 9.10559 24.3172 8.98847 23.5317C8.84616 22.5875 9.17877 21.6308 9.87692 20.9772C10.3059 20.5755 10.8383 20.3179 11.4215 20.2262C11.544 20.2067 14.5601 19.7011 17.0013 17.4155C18.4389 16.0696 19.3902 14.3698 19.8285 12.3643C19.9559 11.7863 20.248 11.2673 20.6795 10.8633C21.3779 10.2094 22.3518 9.93812 23.2845 10.1422C24.0564 10.3104 24.6561 10.7128 25.0168 11.3021C25.3663 11.8749 25.4646 12.5824 25.2961 13.3496C24.5144 16.9083 22.53 19.1572 20.4987 21.059Z" fill="#F4A360"/>
<path id="Vector_7" d="M20.9632 21.5601C16.8517 25.4095 12.3063 26.3091 12.2609 26.3177C11.3445 26.4558 10.492 26.316 9.80201 25.9118C8.98719 25.4331 8.4571 24.624 8.30974 23.6336C8.13384 22.4678 8.54408 21.2893 9.40741 20.481C9.93783 19.9844 10.5938 19.6641 11.304 19.5547C11.3297 19.5514 14.2365 19.0684 16.5314 16.9198C17.8643 15.6718 18.7477 14.0907 19.1574 12.2196C19.3134 11.5063 19.6769 10.8659 20.2094 10.3673C21.0727 9.55903 22.2756 9.22719 23.4269 9.47938C24.3848 9.6874 25.1344 10.1957 25.5943 10.9494C26.0385 11.6774 26.1642 12.5586 25.958 13.4978C25.1431 17.2366 23.0758 19.5822 20.9632 21.5601ZM10.3391 21.4757C9.80655 21.9743 9.55003 22.7059 9.65284 23.4328C9.82409 24.5774 10.7465 25.1655 12.0602 24.969C12.0995 24.9629 16.262 24.0902 20.027 20.5652C21.9773 18.7393 23.8836 16.5842 24.6228 13.2073C24.7561 12.6014 24.6829 12.0562 24.4104 11.6313C24.1467 11.2201 23.7053 10.9374 23.1332 10.813C22.4188 10.658 21.6734 10.864 21.1387 11.3646C20.8079 11.6743 20.5823 12.0713 20.4865 12.5126C20.018 14.6571 18.9999 16.4756 17.4607 17.9167C14.9381 20.2784 11.86 20.8461 11.5173 20.9032C11.0764 20.9696 10.668 21.1678 10.3391 21.4757Z" fill="#4C2F1B"/>
<path id="Vector_8" d="M15.0375 23.2044C14.9672 23.2703 14.8695 23.307 14.7668 23.2944C14.5798 23.2742 14.4442 23.1054 14.467 22.9159C14.577 21.9447 13.788 21.4471 13.7557 21.4275C13.5944 21.3281 13.5452 21.12 13.6423 20.9565C13.7416 20.7954 13.9478 20.7434 14.111 20.8401C14.1617 20.87 15.3099 21.5766 15.1476 22.9921C15.1334 23.0784 15.0956 23.15 15.0375 23.2044ZM19.6949 20.0258C19.6513 20.0666 19.5964 20.0953 19.5346 20.112C19.35 20.153 19.1685 20.0367 19.1279 19.8523C18.9139 18.8708 18.0617 18.7914 18.0548 18.7887C17.8675 18.7732 17.7273 18.609 17.7431 18.4217C17.7586 18.2342 17.9231 18.0941 18.1104 18.1097C18.5787 18.1484 19.5384 18.5317 19.795 19.7049C19.8212 19.8254 19.7797 19.9463 19.6949 20.0258Z" fill="#4C2F1B"/>
<path id="Vector_9" d="M23.2305 15.4154C23.1916 15.4519 23.1437 15.4783 23.0915 15.4954C22.9091 15.5481 22.7223 15.4411 22.6695 15.2586C22.4218 14.3817 21.4744 14.4001 21.4347 14.4011C21.2467 14.4045 21.0894 14.2608 21.0815 14.0725C21.0736 13.8846 21.2222 13.7272 21.4103 13.7193C21.9371 13.6987 23.0135 13.9544 23.3284 15.073C23.362 15.201 23.3202 15.3314 23.2305 15.4154Z" fill="#4C2F1B"/>
<path id="Vector_10" d="M24.03 6.16294C23.9671 6.22185 23.8881 6.26398 23.8029 6.28469L22.9604 6.48283C22.7022 6.5424 22.442 6.39103 22.3683 6.13718L22.1347 5.32868C22.0821 5.14636 22.1354 4.95533 22.2736 4.82596C22.4337 4.67608 22.6695 4.64626 22.8584 4.75557L23.9349 5.36594C24.0733 5.4456 24.165 5.58224 24.1854 5.74045C24.2033 5.89631 24.1463 6.05406 24.03 6.16294Z" fill="#FF6C4A"/>
<path id="Vector_11" d="M22.5048 5.07304C22.5509 5.02985 22.6217 5.01341 22.6886 5.0508L23.7649 5.66095C23.8639 5.71813 23.8691 5.84516 23.7964 5.91323C23.7771 5.93134 23.7532 5.94457 23.7249 5.95312L22.8823 6.15126C22.7995 6.16979 22.7189 6.12248 22.6956 6.04429L22.462 5.23105C22.4451 5.16954 22.4635 5.11165 22.5048 5.07304ZM22.0376 4.57411C21.8048 4.79205 21.7166 5.1154 21.8026 5.42114L22.0363 6.22943C22.1606 6.65833 22.6004 6.9146 23.036 6.81136L23.8785 6.61322C24.0228 6.57816 24.1545 6.50953 24.2612 6.40961C24.4553 6.22789 24.5534 5.95862 24.5198 5.69474C24.4886 5.433 24.3297 5.19554 24.0992 5.06572L23.0227 4.45535C22.705 4.27616 22.3068 4.32213 22.0376 4.57411Z" fill="#4C2F1B"/>
<path id="Vector_12" d="M4.70065 22.9602C4.58437 23.0691 4.42321 23.1155 4.26668 23.0847C4.11037 23.0537 3.98225 22.9556 3.90946 22.8101L3.37123 21.6958C3.27692 21.4979 3.31985 21.2668 3.48227 21.1147C3.62046 20.9853 3.81438 20.9445 3.99304 21.0092L4.78443 21.2954C5.03247 21.3856 5.16701 21.6554 5.09038 21.9089L4.83724 22.7366C4.81081 22.8252 4.76379 22.9011 4.70065 22.9602Z" fill="#FF6C4A"/>
<path id="Vector_13" d="M3.71577 21.369C3.75701 21.3304 3.8138 21.3135 3.87647 21.3365L4.66764 21.623C4.74412 21.6514 4.78821 21.7373 4.7621 21.8163L4.50896 22.644C4.49876 22.6719 4.48379 22.6947 4.46445 22.7128C4.39174 22.7809 4.26533 22.7673 4.21479 22.6647L3.67656 21.5504C3.64836 21.4819 3.66964 21.4122 3.71577 21.369ZM3.24865 20.8701C2.97951 21.1221 2.90291 21.5166 3.06538 21.8504L3.60362 22.9647C3.72018 23.2055 3.94449 23.3774 4.20361 23.4257C4.46745 23.4745 4.74006 23.3962 4.93394 23.2147C5.04066 23.1148 5.12013 22.9862 5.16228 22.8463L5.41541 22.0186C5.54688 21.5906 5.32051 21.1349 4.89797 20.9848L4.1068 20.6984C3.80989 20.5854 3.48144 20.6521 3.24865 20.8701Z" fill="#4C2F1B"/>
</g>
<defs>
<clipPath id="clip0_1_4083">
<rect width="27.271" height="15.5834" fill="white" transform="translate(0.333252 19.5273) rotate(-43.1142)"/>
</clipPath>
</defs>
</svg>
