<svg width="24" height="24" viewBox="0 0 24 24" fill="none" xmlns="http://www.w3.org/2000/svg">
<g id="Pizza" clip-path="url(#clip0_1_4100)">
<path id="Vector" d="M1.41333 14.0828V16.6752H21.9586C22.5362 16.6752 22.9768 14.0371 22.9768 14.0371L1.41333 14.0828Z" fill="#F2C05A"/>
<path id="Vector_2" d="M1.41306 17.3094C1.05699 17.3094 0.77771 17.0307 0.77771 16.6752V14.0826C0.77771 13.7331 1.06272 13.4488 1.41306 13.4488L22.9919 13.4031C23.1712 13.4031 23.3568 13.488 23.4646 13.6194C23.5885 13.7677 23.6361 13.9479 23.5999 14.1281C23.0734 17.3094 22.2746 17.3094 21.9739 17.3094H1.41306ZM21.7808 16.0564L21.8235 15.971C21.9198 15.7788 22.0309 15.4379 22.184 14.8653L22.236 14.6708L2.06376 14.717V16.0564H2.21836H21.7808Z" fill="#4C2F1B"/>
<path id="Vector_3" d="M17.4454 1.2562C17.0047 1.02873 16.4576 1.08949 16.0929 1.42317L1.42847 14.0826H4.16402V21.3751C4.16402 22.2393 4.86287 22.9365 5.72909 22.9365C6.5953 22.9365 7.29415 22.2393 7.29415 21.3751V14.0826H8.92013V17.5241C8.92013 18.4034 9.64944 19.1312 10.531 19.1312C11.4123 19.1312 12.1419 18.4036 12.1419 17.5241V14.0826H14.467C14.695 14.9468 15.4701 15.5835 16.397 15.5835C17.3241 15.5835 18.114 14.9468 18.3269 14.0826L23.0073 14.0676C24.481 5.68341 19.436 2.25699 17.4454 1.2562Z" fill="#FFDE8A"/>
<path id="Vector_4" d="M12.6128 6.77496C13.5092 6.77496 14.2237 6.06242 14.2237 5.16783C14.2237 4.54617 13.8741 4.03072 13.3726 3.75806L11.1084 5.71367C11.3364 6.33533 11.9137 6.77496 12.6128 6.77496Z" fill="#FF5C5C"/>
<path id="Vector_5" d="M12.613 7.09327C11.8074 7.09327 11.0781 6.57782 10.8046 5.81983C10.759 5.69856 10.7892 5.56223 10.8957 5.47134L13.1599 3.51547C13.251 3.42458 13.403 3.40926 13.5092 3.47002C14.1474 3.80371 14.5274 4.45549 14.5274 5.15298C14.543 6.22907 13.6768 7.09327 12.613 7.09327ZM11.4883 5.80476C11.7164 6.21427 12.1419 6.47187 12.613 6.47187C13.3272 6.47187 13.9048 5.89591 13.9048 5.1831C13.9048 4.77385 13.7072 4.39473 13.3879 4.15219L11.4883 5.80476Z" fill="#4C2F1B"/>
<path id="Vector_6" d="M17.947 8.15451C17.7645 8.92782 18.2661 9.7162 19.0409 9.88291C19.588 10.0042 20.1198 9.80709 20.4542 9.4129L19.1778 7.03271C18.5852 7.10854 18.0836 7.53285 17.947 8.15451Z" fill="#FF5C5C"/>
<path id="Vector_7" d="M19.3599 10.2318C19.2383 10.2318 19.1017 10.2167 18.9801 10.1863C18.0379 9.97419 17.4302 9.03416 17.6428 8.07908C17.8099 7.36653 18.4026 6.82069 19.1472 6.72981C19.2688 6.71474 19.4057 6.77525 19.4663 6.89652L20.7427 9.26164C20.8037 9.38291 20.7883 9.51924 20.6972 9.61038C20.3476 10.0043 19.8614 10.2318 19.3599 10.2318ZM18.2506 8.21541C18.1897 8.51871 18.2355 8.82175 18.4023 9.06429C18.5697 9.32188 18.8128 9.50392 19.1165 9.56468C19.451 9.64051 19.8003 9.54962 20.0738 9.3372L19.0254 7.38159C18.6306 7.51792 18.3417 7.82096 18.2506 8.21541Z" fill="#4C2F1B"/>
<path id="Vector_8" d="M5.71377 23.5555C4.50034 23.5555 3.51283 22.5706 3.51283 21.3597V14.7014H1.41315C1.14246 14.7014 0.913669 14.5406 0.830379 14.2916C0.730431 14.041 0.803831 13.7647 1.00997 13.5951L15.6773 0.933369C16.0172 0.644091 16.4483 0.484131 16.8905 0.484131C17.1817 0.484131 17.4626 0.550608 17.7255 0.682004C19.5063 1.57762 25.195 5.1949 23.6146 14.1316C23.5664 14.4316 23.2989 14.6559 22.9917 14.6559L18.7486 14.6715L18.7057 14.7546C18.253 15.6289 17.3624 16.1722 16.3814 16.1722C15.4006 16.1722 14.51 15.6292 14.0571 14.7546L14.0136 14.671H12.7619V17.4786C12.7619 18.7061 11.7611 19.7045 10.5308 19.7045C9.30043 19.7045 8.29991 18.7061 8.29991 17.4788V14.6712H7.92953V21.3296C7.91548 22.5563 6.92147 23.5555 5.71377 23.5555ZM16.8749 1.75316C16.7317 1.75316 16.5992 1.80354 16.4915 1.8991L3.11018 13.4487H4.14844C4.32465 13.4487 4.47821 13.5113 4.5805 13.625C4.7057 13.7502 4.76869 13.9065 4.76869 14.0828V21.3753C4.76869 21.8951 5.19268 22.3182 5.71351 22.3182C6.24344 22.3182 6.65832 21.904 6.65832 21.3753V14.0826C6.65832 13.733 6.94333 13.4487 7.29367 13.4487H8.91964C9.09559 13.4487 9.24916 13.5113 9.35171 13.625C9.4769 13.7502 9.53989 13.9065 9.53989 14.0828V17.5243C9.53989 18.0608 9.97742 18.4973 10.5152 18.4973C11.0529 18.4973 11.4904 18.0608 11.4904 17.5243V14.0675C11.4904 13.7177 11.7754 13.4334 12.1258 13.4334H14.4509C14.7413 13.4334 14.9865 13.6247 15.061 13.9093C15.2164 14.5128 15.7593 14.9345 16.3808 14.9345C17.0024 14.9345 17.5453 14.5128 17.7007 13.9091C17.7752 13.625 18.0204 13.4336 18.3106 13.4336L22.4571 13.418L22.4756 13.2856C23.5107 5.89265 19.0966 2.80199 17.1508 1.81627C17.0565 1.77342 16.9657 1.75316 16.8749 1.75316Z" fill="#4C2F1B"/>
<path id="Vector_9" d="M22.9918 14.037C24.5116 5.50151 19.2232 2.12053 17.3237 1.19583C16.9437 1.0138 16.4876 1.07456 16.1685 1.34748L15.0137 2.34827C17.5363 4.22806 21.776 7.70018 20.4843 14.0526L22.9918 14.037Z" fill="#FFB07B"/>
<path id="Vector_10" d="M20.4846 14.6712C20.3001 14.6712 20.1171 14.5842 19.9958 14.4385C19.8748 14.2939 19.8246 14.0986 19.8613 13.9155C20.9737 8.42857 17.836 5.24054 14.6202 2.84581C14.4682 2.74065 14.3761 2.56251 14.3628 2.35347C14.3511 2.16494 14.4305 1.98499 14.5809 1.86009L15.7382 0.85722C16.0471 0.591053 16.4378 0.444336 16.8381 0.444336C17.0927 0.444336 17.3464 0.50536 17.5726 0.620656C19.3915 1.50563 25.1921 5.09226 23.5843 14.1466C23.5362 14.4468 23.2686 14.6712 22.9617 14.6712H20.4846ZM16.8469 1.71337C16.7421 1.71337 16.639 1.75128 16.556 1.82036L16.0036 2.30984L16.1494 2.42384C17.607 3.56589 22.0427 7.04139 21.2428 13.2289L21.2204 13.4029H22.443L22.4615 13.27C23.5159 5.736 19.0114 2.70689 17.026 1.75414C16.9732 1.72791 16.9107 1.71337 16.8469 1.71337Z" fill="#4C2F1B"/>
<path id="Vector_11" d="M20.4847 14.0371C20.4847 14.0371 20.3477 15.7047 19.74 16.6752H21.9737C21.9737 16.6752 22.7639 16.2506 22.9919 14.0371H20.4847Z" fill="#E2803D"/>
<path id="Vector_12" d="M19.7399 17.3092C19.5059 17.3092 19.3016 17.1869 19.1928 16.982C19.079 16.7797 19.0834 16.538 19.2024 16.3476C19.6399 15.6366 19.82 14.3743 19.8487 13.9879C19.8723 13.6683 20.1451 13.4182 20.4694 13.4182H22.9767C23.1628 13.4182 23.3294 13.4914 23.4345 13.6195C23.567 13.7651 23.622 13.9319 23.5983 14.1077C23.3406 16.5439 22.4306 17.1412 22.2508 17.2362C22.1779 17.2837 22.0746 17.3092 21.9736 17.3092H19.7399ZM21.0316 14.7953C20.9715 15.0955 20.8965 15.4691 20.7773 15.8566L20.7159 16.0563H21.7352L21.7815 15.9903C21.8861 15.841 22.084 15.4956 22.231 14.8602L22.2747 14.6711H21.0566L21.0316 14.7953Z" fill="#4C2F1B"/>
<path id="Vector_13" d="M8.41895 10.8682C8.41895 11.446 8.88823 11.9142 9.46736 11.9142C10.0465 11.9142 10.5158 11.446 10.5158 10.8682C10.5158 10.2905 10.0465 9.82227 9.46736 9.82227C8.88823 9.82227 8.41895 10.2905 8.41895 10.8682Z" fill="#FF5C5C"/>
<path id="Vector_14" d="M9.46726 12.2331C8.7226 12.2331 8.09949 11.6267 8.09949 10.8687C8.09949 10.1108 8.70724 9.50415 9.46726 9.50415C10.227 9.50415 10.8348 10.1105 10.8348 10.8687C10.8348 11.6265 10.227 12.2331 9.46726 12.2331ZM9.46726 10.1409C9.05706 10.1409 8.73796 10.4746 8.73796 10.8685C8.73796 11.2627 9.07216 11.5961 9.46726 11.5961C9.86237 11.5961 10.1966 11.2624 10.1966 10.8685C10.1966 10.4743 9.87746 10.1409 9.46726 10.1409Z" fill="#4C2F1B"/>
<path id="Vector_15" d="M14.6341 11.9146H12.4305C12.309 11.9146 12.2025 11.8084 12.2025 11.6871V11.1867C12.2025 11.0654 12.309 10.9592 12.4305 10.9592H14.6341C14.7556 10.9592 14.8621 11.0654 14.8621 11.1867V11.6871C14.8772 11.8084 14.7707 11.9146 14.6341 11.9146Z" fill="#3DE25C"/>
<path id="Vector_16" d="M14.391 12.233H12.689C12.2484 12.233 11.8988 11.8843 11.8988 11.4446C11.8988 11.005 12.2484 10.6562 12.689 10.6562H14.391C14.8316 10.6562 15.1812 11.005 15.1812 11.4446C15.1812 11.8843 14.8316 12.233 14.391 12.233ZM12.689 11.2777C12.5979 11.2777 12.5219 11.3535 12.5219 11.4444C12.5219 11.5355 12.5979 11.6113 12.689 11.6113H14.391C14.4821 11.6113 14.5581 11.5355 14.5581 11.4444C14.5581 11.3535 14.4821 11.2777 14.391 11.2777H12.689Z" fill="#4C2F1B"/>
<path id="Vector_17" d="M16.1536 9.62509L14.9834 8.35164C14.9378 8.3062 14.9378 8.23037 14.9834 8.18493L15.5151 7.69985C15.5607 7.65441 15.6367 7.65441 15.6825 7.69985L16.8527 8.9733C16.8983 9.01875 16.8983 9.09457 16.8527 9.14001L16.321 9.62509C16.2902 9.67079 16.1992 9.67079 16.1536 9.62509Z" fill="#3DE25C"/>
<path id="Vector_18" d="M16.26 9.9284H16.2298C16.0778 9.9284 15.9409 9.85257 15.8347 9.74636L14.8318 8.67001C14.7254 8.5638 14.6798 8.41241 14.6798 8.26076C14.6798 8.10937 14.7558 7.97278 14.8623 7.86657L15.1965 7.56327C15.3029 7.45706 15.4549 7.41162 15.6069 7.41162C15.7589 7.41162 15.8956 7.48745 16.002 7.59365L17.0049 8.67001C17.1113 8.77622 17.1569 8.92787 17.1569 9.07952C17.1569 9.23117 17.0809 9.3675 16.9744 9.4737L16.6402 9.777C16.5335 9.86763 16.3966 9.9284 16.26 9.9284ZM15.3482 8.27582L16.26 9.26129L16.5031 9.03381L15.5913 8.04835L15.3482 8.27582Z" fill="#4C2F1B"/>
</g>
<defs>
<clipPath id="clip0_1_4100">
<rect width="23.1111" height="23.1111" fill="white" transform="translate(0.77771 0.444336)"/>
</clipPath>
</defs>
</svg>
