<svg width="22" height="23" viewBox="0 0 22 23" fill="none" xmlns="http://www.w3.org/2000/svg">
<path d="M8.24998 13.3333L13.75 7.83333L8.24998 13.3333ZM8.70831 8.29167H8.71748H8.70831ZM13.2916 12.875H13.3008H13.2916ZM17.4166 19.75V5.08333C17.4166 4.5971 17.2235 4.13079 16.8797 3.78697C16.5359 3.44315 16.0695 3.25 15.5833 3.25H6.41665C5.93042 3.25 5.4641 3.44315 5.12028 3.78697C4.77647 4.13079 4.58331 4.5971 4.58331 5.08333V19.75L7.79165 17.9167L11 19.75L14.2083 17.9167L17.4166 19.75ZM9.16665 8.29167C9.16665 8.41322 9.11836 8.5298 9.0324 8.61576C8.94645 8.70171 8.82987 8.75 8.70831 8.75C8.58675 8.75 8.47018 8.70171 8.38422 8.61576C8.29827 8.5298 8.24998 8.41322 8.24998 8.29167C8.24998 8.17011 8.29827 8.05353 8.38422 7.96758C8.47018 7.88162 8.58675 7.83333 8.70831 7.83333C8.82987 7.83333 8.94645 7.88162 9.0324 7.96758C9.11836 8.05353 9.16665 8.17011 9.16665 8.29167ZM13.75 12.875C13.75 12.9966 13.7017 13.1131 13.6157 13.1991C13.5298 13.285 13.4132 13.3333 13.2916 13.3333C13.1701 13.3333 13.0535 13.285 12.9676 13.1991C12.8816 13.1131 12.8333 12.9966 12.8333 12.875C12.8333 12.7534 12.8816 12.6369 12.9676 12.5509C13.0535 12.465 13.1701 12.4167 13.2916 12.4167C13.4132 12.4167 13.5298 12.465 13.6157 12.5509C13.7017 12.6369 13.75 12.7534 13.75 12.875Z" stroke="#718096" stroke-width="1.5" stroke-linecap="round" stroke-linejoin="round"/>
</svg>
